#!OML:ASF I:\Actors\actors\Patient Classification 2\Patient 1\Session 1\actor1.ASF
:FULLY-SPECIFIED
:DEGREES
304
root -0.497641 18.7126 5.65619 3.15415 -3.32209 -1.40541
lowerback 5.16124 1.35332 -1.82386
upperback -0.465605 1.68835 -0.0286567
thorax -3.426 0.872967 0.857057
lowerneck -13.9355 -4.57501 -3.21765
upperneck 28.8024 -7.36714 5.24143
head 12.1052 -3.00089 1.44278
rclavicle -2.60905e-015 2.78299e-015
rhumerus -50.7164 16.7704 -86.7042
rradius 69.476
rwrist 10.1731
rhand -11.3963 -23.1784
rfingers 7.12502
rthumb 14.6387 -52.6418
lclavicle -2.60905e-015 2.78299e-015
lhumerus -37.0765 -12.6149 85.1483
lradius 57.8836
lwrist 6.18616
lhand -11.041 -45.5616
lfingers 7.12502
lthumb 14.981 -16.1234
rfemur 0 0 0
rtibia 0
rfoot 0 0
rtoes 0
lfemur -5.27101 -4.54815 -13.562
ltibia 21.6148
lfoot -24.7357 17.2669
ltoes -53.7977
305
root -0.497081 18.7146 5.63179 3.1639 -3.40907 -1.39681
lowerback 5.24874 1.38807 -1.71888
upperback -0.327984 1.74004 -0.0444037
thorax -3.3308 0.895035 0.777759
lowerneck -14.0405 -4.55552 -3.14871
upperneck 28.5312 -7.28161 5.07101
head 12.0034 -2.97897 1.37649
rclavicle -7.30534e-015 1.23246e-014
rhumerus -47.8834 16.4081 -85.7041
rradius 65.8408
rwrist 10.9598
rhand -11.8544 -22.0291
rfingers 7.12502
rthumb 14.1973 -51.5239
lclavicle -7.30534e-015 1.23246e-014
lhumerus -34.6176 -11.9006 84.7303
lradius 54.4455
lwrist 5.41811
lhand -12.3426 -47.2371
lfingers 7.12502
lthumb 13.7268 -17.7098
rfemur 0 0 0
rtibia 0
rfoot 0 0
rtoes 0
lfemur -5.35913 -4.38267 -13.5533
ltibia 21.6172
lfoot -24.6426 17.256
ltoes -53.9159
306
root -0.496707 18.7163 5.60893 3.14939 -3.55195 -1.3511
lowerback 5.22419 1.41586 -1.72319
upperback -0.091537 1.77997 -0.0213357
thorax -3.07482 0.911974 0.805045
lowerneck -14.2999 -4.50573 -3.14439
upperneck 28.2822 -7.15428 4.96421
head 11.9465 -2.93348 1.3483
rclavicle -2.18912e-014 7.55382e-015
rhumerus -45.0603 16.2494 -84.7958
rradius 62.3277
rwrist 11.7793
rhand -12.3933 -20.8505
rfingers 7.12502
rthumb 13.6779 -50.381
lclavicle -2.18912e-014 7.55382e-015
lhumerus -32.3002 -11.2414 84.4856
lradius 51.3023
lwrist 4.3873
lhand -13.3171 -48.7972
lfingers 7.12502
lthumb 12.7876 -19.2088
rfemur 0 0 0
rtibia 0
rfoot 0 0
rtoes 0
lfemur -5.4039 -4.27036 -13.6011
ltibia 21.62
lfoot -24.6272 17.2814
ltoes -53.9009
307
root -0.496665 18.7185 5.58651 3.14109 -3.69742 -1.33886
lowerback 4.92423 1.37663 -1.90986
upperback 0.338049 1.73149 0.149697
thorax -2.47341 0.884057 1.10332
lowerneck -14.7646 -4.40279 -3.20417
upperneck 27.9292 -6.92451 4.86354
head 11.8887 -2.8457 1.34424
rclavicle -1.63749e-014 1.27222e-014
rhumerus -42.0111 16.4348 -83.8382
rradius 58.8681
rwrist 12.8754
rhand -12.8687 -19.4159
rfingers 7.12502
rthumb 13.2197 -48.9767
lclavicle -1.63749e-014 1.27222e-014
lhumerus -30.0725 -10.1916 84.4076
lradius 48.6109
lwrist 3.08942
lhand -13.8811 -49.8796
lfingers 7.12502
lthumb 12.2438 -20.258
rfemur 0 0 0
rtibia 0
rfoot 0 0
rtoes 0
lfemur -5.43574 -4.26467 -13.6161
ltibia 21.6137
lfoot -24.6828 17.2875
ltoes -53.6418
308
root -0.497034 18.7212 5.56544 3.1273 -3.84781 -1.33883
lowerback 5.14117 1.37286 -1.92615
upperback 0.418696 1.72331 0.222654
thorax -2.51435 0.880154 1.18396
lowerneck -14.9279 -4.32994 -3.24504
upperneck 27.6804 -6.77528 4.82106
head 11.8167 -2.78925 1.35349
rclavicle 5.51627e-015 -1.5704e-014
rhumerus -39.5919 16.4219 -83.177
rradius 55.399
rwrist 14.2522
rhand -13.3213 -17.4395
rfingers 7.12502
rthumb 12.7835 -47.0281
lclavicle 5.51627e-015 -1.5704e-014
lhumerus -28.8469 -9.37402 84.4976
lradius 46.6547
lwrist 2.11476
lhand -14.5843 -50.7429
lfingers 7.12502
lthumb 11.5656 -21.082
rfemur 0 0 0
rtibia 0
rfoot 0 0
rtoes 0
lfemur -5.44802 -4.19126 -13.6163
ltibia 21.5992
lfoot -24.6617 17.3176
ltoes -53.5516
309
root -0.498424 18.7236 5.54709 3.08224 -4.05849 -1.30224
lowerback 5.34591 1.38802 -2.00573
upperback 0.545898 1.73714 0.294437
thorax -2.5031 0.887005 1.29827
lowerneck -15.1607 -4.24545 -3.22711
upperneck 27.3803 -6.58979 4.67419
head 11.7307 -2.7227 1.31809
rclavicle 2.83268e-015 -1.98785e-015
rhumerus -37.1559 16.3145 -82.5883
rradius 51.878
rwrist 15.5835
rhand -14.1993 -16.1751
rfingers 7.12502
rthumb 11.9369 -45.8148
lclavicle 2.83268e-015 -1.98785e-015
lhumerus -27.9361 -8.7082 84.7317
lradius 45.281
lwrist 1.6618
lhand -15.477 -51.5331
lfingers 7.12502
lthumb 10.7047 -21.8259
rfemur 0 0 0
rtibia 0
rfoot 0 0
rtoes 0
lfemur -5.41482 -4.08518 -13.6701
ltibia 21.5878
lfoot -24.6216 17.482
ltoes -53.6915
